# xmcd
#
# Track frame offsets:
#	150
#	20231
#	42705
#	61582
#	83963
#	106942
#	133840
#	153381
#	166770
#	186842
#	219338
#	236568
#	259907
#	285314
#	305924
#
# Disc length: 4472 seconds
#
# Revision: 0
# Processed by: cddbd v1.5.2PL0 Copyright (c) Steve Scherf et al.
# Submitted via: dBpowerAMP V4.0
#
DISCID=d411760f
DTITLE=Les Staic'achés - Live Staic
DYEAR=2004
DGENRE=Blues
TTITLE0=Laisse tes cachets
TTITLE1=La bourse
TTITLE2=L'Homme en Noir (Hommage à Lou Reed)
TTITLE3=Le Fromage
TTITLE4=Là ça sent le brie, là ça sent le gras
TTITLE5=Vite le progrès
TTITLE6=Les mondes parallèles
TTITLE7=Réaction en chaîne
TTITLE8=Vieillir
TTITLE9=La bête immonde
TTITLE10=Les ricains
TTITLE11=La poupée barbante
TTITLE12=Daniel
TTITLE13=La ballade du mécréant
TTITLE14=Chanson tradition Nel
EXTD=
EXTT0=
EXTT1=
EXTT2=
EXTT3=
EXTT4=
EXTT5=
EXTT6=
EXTT7=
EXTT8=
EXTT9=
EXTT10=
EXTT11=
EXTT12=
EXTT13=
EXTT14=
PLAYORDER=
